inDegrees=yes
nColumns=22
nRows=15
DataType=double
version=3
OpenSimVersion=4.5
endheader
time	pelvis_tilt	pelvis_list	pelvis_rotation	pelvis_tx	pelvis_ty	pelvis_tz	hip_flexion_r	hip_adduction_r	hip_rotation_r	knee_angle_r	ankle_angle_r	mtp_angle_r	hip_flexion_l	hip_adduction_l	hip_rotation_l	knee_angle_l	ankle_angle_l	mtp_angle_l	lumbar_extension	lumbar_bending	lumbar_rotation
0.7868558548532776	-1.262961928867283	2.660694419832133	-2.821545278984689	0.9902185930338054	1.009259911959661	0.001470602135436791	6.278722835490724	-8.08564040531332	-6.325497006864317	-60.80559072600178	-9.049254329862885	0	19.3844065328079	2.776983143242693	-14.9299124684054	-19.30695679637443	3.814828050024703	0	-9.122133484880591	-5.105162124414942	5.888034042523389
0.7987779132601456	-1.256161212724872	2.622002842185132	-2.469769566101504	1.005112771903314	1.011709578222824	0.0001092727972528071	8.1778535696681	-8.134621960814497	-6.088827847838953	-62.52596725780473	-7.806912457660136	0	18.22697519098138	2.991655622206589	-14.80788998124033	-18.89904829930618	4.383967235528015	0	-9.08563528685521	-5.09459909523419	5.362080370162483
0.8106999716670135	-1.215778880114659	2.522886692970784	-2.117811321267164	1.019796854834521	1.014203051660397	-0.001280111274578209	10.03534883757229	-8.115552133358891	-5.925061924003908	-63.81628012220168	-6.447752364029576	0	16.97802215035906	3.152826180587185	-14.64223419683563	-18.36302581125279	4.90177476784136	0	-9.096812982618715	-4.989012728051942	4.827310284081965
0.8226220300738812	-1.144579898642669	2.378679687485787	-1.771697921134836	1.034256193025404	1.016689104041219	-0.002699949129241073	11.87516177973329	-8.04997819936294	-5.810503889602373	-64.74014834292284	-5.074288668935463	0	15.65572810752949	3.269006115853765	-14.45534624693172	-17.72056618689574	5.361330063310804	0	-9.155191800055725	-4.805045555894556	4.289969160390545
0.834544088480749	-1.047381826666502	2.204801226383565	-1.435232594588281	1.048486225401341	1.019108663031098	-0.004153695026726833	13.70608185076052	-7.957911168530668	-5.73040411654864	-65.33928087445948	-3.688929488149356	0	14.2848607838371	3.349295557738331	-14.26414171687961	-17.00573998460317	5.770632792361799	0	-9.257196178552979	-4.559841209766241	3.759093956240029
0.8464661468876169	-0.9298151491022093	2.01254708454309	-1.108522520167589	1.062507565516996	1.021408245128811	-0.005631895434848483	15.5116027316138	-7.850797585639159	-5.679567080798787	-65.60309451417554	-2.262629085811379	0	12.88601084177722	3.399519410933281	-14.08492448573019	-16.24827682460581	6.14579980216225	0	-9.395613691337637	-4.269155715859848	3.241214807869261
0.8583882052944847	-0.7982345156060447	1.8052553379304	-0.7894708407368105	1.076346556637019	1.023536014733201	-0.007113812106384596	17.26467419155195	-7.72886913344663	-5.658892556124202	-65.50306492034646	-0.7487553927342496	0	11.47714079828133	3.41846762999016	-13.92935472144608	-15.47499732384625	6.514514823059056	0	-9.562530753013363	-3.942092191400649	2.740145648642978
0.8703102637013527	-0.6595227856361578	1.58313426726869	-0.4764934480883962	1.09003080443446	1.025442600895059	-0.008581818904230791	18.94066607991997	-7.589517929637552	-5.670845453481344	-65.01441314464581	0.827785429904327	0	10.07050900974223	3.40466741502434	-13.80040329173818	-14.7009139722941	6.896356139575698	0	-9.749352354231851	-3.58353507230728	2.260235032715534
0.8822323221082204	-0.5198826199955082	1.347942981605972	-0.1678447295825408	1.103584543146182	1.027088668128069	-0.01002724683254516	20.51600721008716	-7.432702570286848	-5.718222477103305	-64.11836552342568	2.407137214648554	0	8.678225601914018	3.359364207453337	-13.69677197733832	-13.93843158093913	7.289050959947003	0	-9.94866531099755	-3.198520953388141	1.806375481702539
0.8941543805150883	-0.3848065070424854	1.106816854969928	0.1386383020044686	1.117043869978371	1.028454367086737	-0.01144408142823044	21.95686862910854	-7.262653372389297	-5.802293211156689	-62.77562583607323	3.907935577726288	0	7.310803271888652	3.289597225579018	-13.61908384426753	-13.19711162763371	7.676401344372208	0	-10.15155751378557	-2.797965653164427	1.381854960153209
0.9060764389219561	-0.2583577214452413	0.8715302519440501	0.4470553039356914	1.130476288862866	1.02954941111889	-0.01282620231913625	23.19910923935667	-7.08552150948953	-5.925500432195051	-60.87835384380517	5.228033873039079	0	5.968216512900224	3.209075215708508	-13.56309479896669	-12.47220813422843	8.037016363761452	0	-10.34576475619254	-2.398892783472355	0.9857172054786526
0.9179984973288239	-0.1432414905331613	0.6589928574067589	0.7613912599511808	1.143926338512081	1.030368851214122	-0.01415288429539012	24.21201217216738	-6.911950500558168	-6.084997250564538	-58.41870711744907	6.299671394025727	0	4.651609208150326	3.135724451067625	-13.51341297926204	-11.76543489287494	8.365542361605945	0	-10.52350197002256	-2.026838290583985	0.6138170701096922
0.9299205557356918	-0.04105709346421813	0.4813043360778528	1.088209049852361	1.157426488391677	1.03090726519156	-0.01538984826485807	24.97597431344935	-6.743259769238254	-6.280103723412233	-55.41327252007337	7.060714171670836	0	3.36424249813583	3.08018408985678	-13.44895009155978	-11.08545684655509	8.663247926472071	0	-10.68022641318536	-1.704575011311672	0.2611383176634711
0.9418426141425598	0.04552657749550656	0.3616702600821365	1.429553847224783	1.17098442284295	1.031151408453156	-0.01653447581549448	25.49831553276067	-6.611334789249169	-6.521800618379972	-51.90486729160366	7.398628130678032	0	2.105706461365893	3.067260159945824	-13.36281363030624	-10.42910755488221	8.925831823200889	0	-10.81486615079425	-1.461579446858702	-0.07437633436410056
0.9537646725494275	0.1161106914165198	0.3142184410676558	1.783232914914277	1.184570409081841	1.031084143121111	-0.01759607633105832	25.81013585775107	-6.539710180987675	-6.821371294521374	-47.96943286014998	7.213587656090652	0	0.8765006788513209	3.112453484667336	-13.24901338767277	-9.798618572443276	9.160630485079395	0	-10.93611642456974	-1.312524597775452	-0.3890335981930165
